#!OML:ASF G:\JayActor3\Patient Classification 1\Patient 1\Session 6\male.ASF
:FULLY-SPECIFIED
:DEGREES
1045
root 4.90505 16.447 -24.1856 199.993 -44.4875 -175.495
lowerback 28.4099 -1.95317 3.16398
upperback 6.22699 -2.42694 0.796741
thorax -8.76412 -1.57107 -0.0279358
lowerneck -5.28956 0.472976 2.94661
upperneck 11.2318 0.129105 0.236456
head 4.68405 0.128114 -0.44487
rclavicle 1.10524e-013 7.95139e-015
rhumerus -34.143 7.34725 -85.1961
rradius 47.1442
rwrist 3.74906
rhand -11.1428 -4.65581
rfingers 7.12502
rthumb 14.883 -34.1012
lclavicle 1.10524e-013 7.95139e-015
lhumerus -38.6683 -14.0322 86.6035
lradius 43.7476
lwrist 24.9069
lhand -16.6112 5.34666
lfingers 7.12502
lthumb 9.61049 35.1075
rfemur -49.3782 9.76249 22.311
rtibia 41.816
rfoot -13.9067 -7.01514
rtoes 9.88708
lfemur -41.5139 10.0045 -22.0429
ltibia 36.429
lfoot -15.935 0.422829
ltoes 2.25243
1046
root 4.89802 16.4539 -24.1934 199.819 -44.5319 -175.48
lowerback 28.2816 -1.95974 3.1755
upperback 6.13362 -2.41543 0.825773
thorax -8.80564 -1.56026 -0.00872491
lowerneck -5.37538 0.453315 2.92969
upperneck 11.3715 0.103715 0.173495
head 4.75278 0.112213 -0.465275
rclavicle 7.07673e-014 -6.71892e-014
rhumerus -34.0786 7.28961 -85.1275
rradius 47.0343
rwrist 3.86887
rhand -11.3276 -4.72162
rfingers 7.12502
rthumb 14.7049 -34.1801
lclavicle 7.07673e-014 -6.71892e-014
lhumerus -38.6446 -14.0491 86.5415
lradius 43.8007
lwrist 24.8189
lhand -16.8339 5.31382
lfingers 7.12502
lthumb 9.39565 35.0844
rfemur -49.0234 9.75096 22.3608
rtibia 41.6193
rfoot -13.9504 -7.03737
rtoes 9.91383
lfemur -41.1657 10.0391 -22.0007
ltibia 36.2063
lfoot -15.9189 0.369969
ltoes 2.31576
1047
root 4.89286 16.4594 -24.1997 199.669 -44.5872 -175.473
lowerback 28.1581 -1.97026 3.18288
upperback 6.05704 -2.41326 0.851004
thorax -8.83054 -1.5545 0.0116021
lowerneck -5.43289 0.439068 2.92002
upperneck 11.4756 0.0864587 0.116352
head 4.8029 0.100645 -0.48448
rclavicle 1.78906e-014 -2.66371e-014
rhumerus -33.9827 7.26095 -85.0746
rradius 46.9164
rwrist 3.94643
rhand -11.4553 -4.77484
rfingers 7.12502
rthumb 14.5819 -34.2423
lclavicle 1.78906e-014 -2.66371e-014
lhumerus -38.6108 -14.1197 86.4987
lradius 43.8689
lwrist 24.7256
lhand -16.9866 5.2771
lfingers 7.12502
lthumb 9.24824 35.0543
rfemur -48.7174 9.73383 22.3991
rtibia 41.4511
rfoot -13.9867 -7.06747
rtoes 9.92553
lfemur -40.8719 10.0473 -21.9639
ltibia 36.0261
lfoot -15.904 0.335122
ltoes 2.36589
1048
root 4.88973 16.4634 -24.2047 199.54 -44.6488 -175.472
lowerback 28.0405 -1.98154 3.18199
upperback 5.99253 -2.41655 0.87406
thorax -8.84454 -1.55169 0.0360448
lowerneck -5.47133 0.432041 2.92642
upperneck 11.5596 0.0777794 0.0650682
head 4.84195 0.0940608 -0.504039
rclavicle 8.18993e-014 -6.16232e-014
rhumerus -33.8766 7.25977 -85.0412
rradius 46.8083
rwrist 3.97103
rhand -11.5577 -4.81163
rfingers 7.12502
rthumb 14.4832 -34.2862
lclavicle 8.18993e-014 -6.16232e-014
lhumerus -38.5731 -14.2346 86.4754
lradius 43.9506
lwrist 24.6278
lhand -17.0725 5.25163
lfingers 7.12502
lthumb 9.1654 35.0325
rfemur -48.4604 9.71901 22.4288
rtibia 41.3123
rfoot -14.0187 -7.10344
rtoes 9.94019
lfemur -40.6345 10.0403 -21.9312
ltibia 35.8919
lfoot -15.891 0.314565
ltoes 2.39589
1049
root 4.88855 16.466 -24.2084 199.422 -44.7105 -175.465
lowerback 27.9271 -1.98997 3.17718
upperback 5.9427 -2.42008 0.893399
thorax -8.84389 -1.54961 0.0583995
lowerneck -5.50606 0.424617 2.937
upperneck 11.647 0.0648127 0.0382152
head 4.8815 0.0866437 -0.516306
rclavicle -5.12864e-014 4.01545e-014
rhumerus -33.7602 7.27621 -85.0328
rradius 46.717
rwrist 3.94553
rhand -11.6245 -4.89483
rfingers 7.12502
rthumb 14.4188 -34.374
lclavicle -5.12864e-014 4.01545e-014
lhumerus -38.5233 -14.3872 86.4604
lradius 44.0402
lwrist 24.5257
lhand -17.0606 5.23159
lfingers 7.12502
lthumb 9.17684 35.0119
rfemur -48.2473 9.70942 22.4585
rtibia 41.2009
rfoot -14.0471 -7.14197
rtoes 9.9676
lfemur -40.4492 10.0268 -21.8965
ltibia 35.8029
lfoot -15.8812 0.306401
ltoes 2.41031
1050
root 4.88903 16.4672 -24.2109 199.311 -44.7692 -175.446
lowerback 27.818 -1.99336 3.1705
upperback 5.90283 -2.41923 0.914244
thorax -8.83373 -1.54594 0.0818674
lowerneck -5.48379 0.415316 2.96675
upperneck 12.079 0.0543053 -0.0262205
head 4.52227 0.0779741 -0.497334
rclavicle -1.63003e-014 1.308e-013
rhumerus -33.646 7.30905 -85.0408
rradius 46.647
rwrist 3.90858
rhand -11.6577 -5.03457
rfingers 7.12502
rthumb 14.3868 -34.516
lclavicle -1.63003e-014 1.308e-013
lhumerus -38.4609 -14.5473 86.4527
lradius 44.1299
lwrist 24.4143
lhand -16.9414 5.22354
lfingers 7.12502
lthumb 9.29185 34.9988
rfemur -48.076 9.70408 22.4954
rtibia 41.114
rfoot -14.073 -7.17764
rtoes 10.0096
lfemur -40.3145 10.0123 -21.8557
ltibia 35.756
lfoot -15.8776 0.312526
ltoes 2.39307
1051
root 4.89058 16.4673 -24.212 199.202 -44.8186 -175.414
lowerback 27.7175 -1.99103 3.15706
upperback 5.86958 -2.41353 0.941098
thorax -8.8196 -1.54028 0.11439
lowerneck -5.48149 0.402716 2.97553
upperneck 12.1576 0.0345627 -0.0447689
head 4.5457 0.067123 -0.505796
rclavicle 3.57812e-015 -3.02153e-014
rhumerus -33.5332 7.35965 -85.05
rradius 46.5878
rwrist 3.86883
rhand -11.6509 -5.15574
rfingers 7.12502
rthumb 14.3934 -34.6367
lclavicle 3.57812e-015 -3.02153e-014
lhumerus -38.3939 -14.6889 86.4593
lradius 44.2194
lwrist 24.3162
lhand -16.7638 5.23841
lfingers 7.12502
lthumb 9.46323 35.0059
rfemur -47.9358 9.69497 22.5427
rtibia 41.0466
rfoot -14.0926 -7.20111
rtoes 10.0587
lfemur -40.2175 10.0013 -21.8111
ltibia 35.7443
lfoot -15.8853 0.33029
ltoes 2.35998
1052
root 4.89297 16.4663 -24.2118 199.096 -44.8567 -175.373
lowerback 27.6206 -1.98294 3.14589
upperback 5.84659 -2.40181 0.96536
thorax -8.79559 -1.5324 0.14049
lowerneck -5.45801 0.382776 2.97807
upperneck 12.2231 0.00473848 -0.0501392
head 4.56137 0.0516233 -0.509731
rclavicle 7.15625e-015 -5.96354e-015
rhumerus -33.4195 7.4176 -85.0671
rradius 46.5349
rwrist 3.85121
rhand -11.6325 -5.24349
rfingers 7.12502
rthumb 14.4111 -34.7232
lclavicle 7.15625e-015 -5.96354e-015
lhumerus -38.3133 -14.8179 86.4659
lradius 44.3019
lwrist 24.2516
lhand -16.535 5.26174
lfingers 7.12502
lthumb 9.68405 35.0191
rfemur -47.8211 9.68204 22.5969
rtibia 40.9958
rfoot -14.1094 -7.20976
rtoes 10.1023
lfemur -40.1489 9.99252 -21.7644
ltibia 35.7593
lfoot -15.9068 0.36018
ltoes 2.3132
1053
root 4.89596 16.4645 -24.2103 198.994 -44.8824 -175.324
lowerback 27.5247 -1.9698 3.13352
upperback 5.83131 -2.38524 0.990872
thorax -8.76315 -1.52261 0.166839
lowerneck -5.40697 0.355833 2.96942
upperneck 12.2704 -0.0325199 -0.0526394
head 4.5667 0.0319641 -0.511324
rclavicle -8.5875e-014 2.46493e-014
rhumerus -33.3064 7.50102 -85.0955
rradius 46.4898
rwrist 3.87688
rhand -11.63 -5.3523
rfingers 7.12502
rthumb 14.4136 -34.8318
lclavicle -8.5875e-014 2.46493e-014
lhumerus -38.2257 -14.9197 86.4766
lradius 44.3763
lwrist 24.2305
lhand -16.3086 5.27806
lfingers 7.12502
lthumb 9.90241 35.0252
rfemur -47.7309 9.6691 22.6555
rtibia 40.9587
rfoot -14.1241 -7.20816
rtoes 10.1542
lfemur -40.1036 9.98475 -21.7147
ltibia 35.7923
lfoot -15.9427 0.398723
ltoes 2.2701
1054
root 4.89964 16.462 -24.2075 198.899 -44.896 -175.271
lowerback 27.4311 -1.95313 3.12243
upperback 5.82191 -2.36515 1.01242
thorax -8.72525 -1.51154 0.186779
lowerneck -5.33848 0.325486 2.96644
upperneck 12.3113 -0.0734998 -0.0629176
head 4.56707 0.0101429 -0.516425
rclavicle 2.06736e-014 -3.29983e-014
rhumerus -33.1987 7.60572 -85.1425
rradius 46.4553
rwrist 3.94559
rhand -11.6571 -5.48233
rfingers 7.12502
rthumb 14.3874 -34.9637
lclavicle 2.06736e-014 -3.29983e-014
lhumerus -38.1367 -14.9964 86.4856
lradius 44.446
lwrist 24.2568
lhand -16.1213 5.2882
lfingers 7.12502
lthumb 10.0832 35.0266
rfemur -47.6634 9.65767 22.7135
rtibia 40.934
rfoot -14.1376 -7.19695
rtoes 10.198
lfemur -40.0769 9.97813 -21.6657
ltibia 35.8375
lfoot -15.9896 0.443628
ltoes 2.24371
1055
root 4.90423 16.4589 -24.2034 198.819 -44.8985 -175.227
lowerback 27.3381 -1.93362 3.10672
upperback 5.81932 -2.34443 1.02665
thorax -8.68013 -1.5004 0.20086
lowerneck -5.26191 0.296606 2.97203
upperneck 12.3604 -0.112139 -0.0862331
head 4.56861 -0.0110274 -0.526825
rclavicle -5.92378e-014 1.63003e-014
rhumerus -33.0908 7.7174 -85.2043
rradius 46.4212
rwrist 4.0454
rhand -11.6893 -5.59768
rfingers 7.12502
rthumb 14.3564 -35.0813
lclavicle -5.92378e-014 1.63003e-014
lhumerus -38.0455 -15.0582 86.4918
lradius 44.5115
lwrist 24.3357
lhand -16.0133 5.2943
lfingers 7.12502
lthumb 10.1873 35.0276
rfemur -47.6202 9.65492 22.7587
rtibia 40.9213
rfoot -14.1505 -7.18984
rtoes 10.2498
lfemur -40.0682 9.97295 -21.6266
ltibia 35.8902
lfoot -16.0432 0.490388
ltoes 2.22422
1056
root 4.90958 16.4554 -24.1983 198.749 -44.9 -175.188
lowerback 27.2504 -1.91533 3.09735
upperback 5.82264 -2.32486 1.03549
thorax -8.63142 -1.49025 0.205789
lowerneck -5.20107 0.274152 2.99366
upperneck 12.4384 -0.143384 -0.126202
head 4.58175 -0.0288173 -0.544667
rclavicle 2.78299e-014 -9.54166e-015
rhumerus -32.986 7.81984 -85.2763
rradius 46.3881
rwrist 4.14249
rhand -11.7447 -5.63452
rfingers 7.12502
rthumb 14.303 -35.1219
lclavicle 2.78299e-014 -9.54166e-015
lhumerus -37.9529 -15.1076 86.4993
lradius 44.5699
lwrist 24.4445
lhand -15.9999 5.29428
lfingers 7.12502
lthumb 10.2002 35.027
rfemur -47.5955 9.65884 22.7949
rtibia 40.9203
rfoot -14.1679 -7.18924
rtoes 10.309
lfemur -40.0738 9.96779 -21.5935
ltibia 35.9485
lfoot -16.0979 0.535176
ltoes 2.20514
